<svg xmlns="http://www.w3.org/2000/svg" viewBox="0 0 600 550"><ellipse cx="300" cy="480" rx="240" ry="31" fill="#25352d" opacity=".12"/><ellipse cx="300" cy="280" rx="240" ry="166" fill="#fdf9ee" stroke="#b5a98e" stroke-width="8"/><ellipse cx="300" cy="280" rx="197" ry="129" fill="#f0e5cc" stroke="#d6c4a2" stroke-width="7"/><path d="M127 274q46-95 120-32t104-23q59-52 116 42-12 85-114 72-66-13-113 5-96 23-113-64" fill="#70886b"/><path d="M160 310q42-84 100-67t88-4q70-19 91 56-64 41-127 11-71-35-152 4" fill="#bd6247"/><ellipse cx="284" cy="261" rx="69" ry="56" fill="#faf6e8"/><ellipse cx="284" cy="261" rx="37" ry="35" fill="#d8a745"/><path d="M175 216q27-30 51-6M359 335q44 27 70-16M394 213q38-6 44 25" fill="none" stroke="#f3d28b" stroke-width="18" stroke-linecap="round"/><g fill="#405c3e"><circle cx="165" cy="262" r="9"/><circle cx="376" cy="209" r="9"/><circle cx="405" cy="298" r="9"/></g></svg>