<svg xmlns="http://www.w3.org/2000/svg" viewBox="0 0 850 980"><defs><pattern id="p" width="70" height="70" patternUnits="userSpaceOnUse"><path d="M0 70V0h70" fill="none" stroke="#efe5d3" stroke-width="2" opacity=".35"/></pattern></defs><rect width="850" height="980" fill="#cab4a0"/><rect width="850" height="980" fill="url(#p)"/><path d="M-70 860Q170 470 300 520T850 230" fill="none" stroke="#f0e5cf" stroke-width="114"/><path d="M-70 860Q170 470 300 520T850 230" fill="none" stroke="#937a69" stroke-width="2" stroke-dasharray="18 23"/><g fill="#596e50"><circle cx="95" cy="135" r="110"/><circle cx="185" cy="210" r="95"/><circle cx="680" cy="750" r="167"/><circle cx="802" cy="930" r="130"/><circle cx="660" cy="65" r="130"/></g><g fill="#9ca884" opacity=".9"><circle cx="73" cy="100" r="61"/><circle cx="157" cy="205" r="62"/><circle cx="667" cy="725" r="109"/><circle cx="781" cy="917" r="72"/></g><rect x="285" y="145" width="315" height="290" rx="7" fill="#364d3b" transform="rotate(8 442 290)"/><rect x="316" y="181" width="258" height="226" rx="3" fill="#f3e7d2" transform="rotate(8 442 290)"/><path d="M360 231h150M360 270h150M360 309h150" stroke="#d4baa1" stroke-width="18"/><text x="444" y="370" text-anchor="middle" fill="#364d3b" font-size="27" font-family="Georgia">LARK LANE</text><g stroke="#a36d5b" stroke-width="10" fill="none"><path d="M81 570q110-40 160 80M370 765q90-130 220-40"/></g><g fill="#f0cba9"><circle cx="400" cy="535" r="21"/><circle cx="453" cy="518" r="12"/><circle cx="345" cy="570" r="15"/></g></svg>